<?xml version="1.0" encoding="UTF-8" standalone="no"?>
<!-- Created with Inkscape (http://www.inkscape.org/) -->

<svg
   width="180"
   height="60"
   viewBox="0 0 47.625 15.875005"
   version="1.1"
   id="svg1"
   xml:space="preserve"
   xmlns="http://www.w3.org/2000/svg"
   xmlns:svg="http://www.w3.org/2000/svg"><defs
     id="defs1" /><g
     id="layer1"><path
       style="fill:#ee7b04;stroke-width:0.120459"
       d="m 0.15547269,13.544027 c -0.002927,-0.442613 0.002843,-0.857495 0.0128173,-0.921963 l 0.0181343,-0.117213 0.70665139,-0.599893 C 1.281733,11.575016 2.2862931,10.702696 3.1254295,9.9664685 4.9913762,8.3293566 5.1816333,8.1657371 5.2193404,8.1657371 h 0.029805 V 8.4100334 8.6543299 L 5.0658846,8.8493395 C 4.7709415,9.1631921 4.3109641,9.6705234 3.9105489,10.123616 c -0.061353,0.06942 -0.190432,0.213413 -0.2868422,0.319976 -0.4367023,0.48269 -1.7174137,1.941486 -2.5330741,2.885303 -0.17421337,0.201587 -0.32522997,0.373692 -0.33559066,0.382456 -0.0103595,0.0088 -0.137724,0.155772 -0.28303079,0.326683 -0.14530567,0.17091 -0.27477335,0.310745 -0.28770577,0.310745 H 0.16079176 Z M 32.347958,10.659671 C 32.291902,10.609755 31.043436,9.1919182 30.528692,8.5935984 L 30.327101,8.359271 30.528692,8.1723973 C 30.63957,8.0696177 30.87742,7.8524812 31.057249,7.6898731 l 0.326964,-0.2956519 0.04434,0.017005 c 0.02439,0.00936 0.286002,0.2948875 0.581372,0.6345128 0.295367,0.3396236 0.888417,1.0171739 1.317882,1.5056652 0.429466,0.4884918 0.82696,0.9411748 0.88332,1.0059628 l 0.10247,0.117799 -0.02013,0.02013 -0.02014,0.02013 h -0.931362 -0.931363 z"
       id="path5" /><path
       style="fill:#5e6265;fill-opacity:1;stroke-width:0.120459"
       d="m 11.480483,10.66764 c 0.01668,5.225267 0,0 0,0 z M 5.6965283,10.564057 5.6977444,7.7673461 6.3410572,7.3848895 C 6.6948793,7.1745387 7.3779436,6.7622029 7.8589783,6.4685885 8.3400118,6.174974 8.7455806,5.9347438 8.7602416,5.9347438 h 0.026655 V 9.1786163 12.422491 L 7.9184017,12.689538 C 7.4407302,12.836413 6.7575561,13.047527 6.4002374,13.158676 6.0429185,13.269825 5.7381485,13.360768 5.7229708,13.360768 H 5.6953743 Z M 9.2165718,9.1537482 c -9.19273469,-9.16390089 -9.19273469,-9.16390089 0,0 z M 0.18160025,11.962191 c -0.15776314,-11.97234369 -0.15776314,-11.97234369 0,0 z M 2.6038224,6.1780324 V 2.4652323 L 3.0579888,2.0898726 C 3.3077816,1.8834237 3.8440744,1.4378131 4.2497513,1.0996266 4.6554283,0.76143843 4.9960528,0.48473944 5.0066951,0.48473944 h 0.01935 L 5.0257952,4.1260404 5.0255453,7.7673424 4.2398805,8.4525772 C 3.8077638,8.8294549 3.3654722,9.2166924 3.2570102,9.3131027 3.148548,9.4095132 2.9571971,9.5789437 2.8317853,9.6896122 L 2.603763,9.8908305 Z M 10.380432,4.8192453 c -10.35659489,-4.82939799 -10.35659489,-4.82939799 0,0 z"
       id="path4" /><path
       style="fill:#5e6265;fill-opacity:1;stroke-width:0.118147"
       d="m 17.395992,3.3519342 -2.3e-5,-0.5079707 h 0.592196 0.592196 l 0.0095,0.3985605 c 0.0052,0.2192091 0.0053,0.4498941 3.8e-5,0.5126317 l -0.0095,0.1140713 -0.592212,-0.00466 -0.59221,-0.00466 z"
       id="path31" /><path
       style="fill:#5e6265;fill-opacity:1;stroke-width:0.118147"
       d="m 15.440631,3.8478797 c -0.0078,-0.0077 -0.01403,-0.2367519 -0.01403,-0.508971 V 2.8439635 h 0.609565 0.609565 v 0.496677 0.4966751 l -0.115283,0.021627 -0.115286,0.021626 -0.480252,-0.00932 c -0.264143,-0.00514 -0.486569,-0.015643 -0.494283,-0.02336 z"
       id="path30" /><path
       style="fill:#34373b;stroke-width:0.118147"
       d="M 8.799543,5.3704854 C 8.7221744,5.3169613 8.532272,5.1857947 8.3775362,5.0790063 8.2228002,4.9722161 7.7062993,4.6120317 7.2297556,4.2785949 6.7532121,3.945158 6.1518534,3.5272324 5.8934033,3.3498725 L 5.4234926,3.0273994 V 1.6365591 0.24571589 l 0.039075,0.0226706 c 0.039293,0.0227975 0.6008883,0.41928186 1.0081256,0.7117339 C 6.591043,1.066549 6.9708488,1.3360193 7.3147064,1.5789468 7.6585637,1.8218725 8.1450328,2.167198 8.3957503,2.3463322 c 0.250716,0.179136 0.6023889,0.4284638 0.7814926,0.5540609 0.1791037,0.125597 0.4733463,0.3330427 0.6538716,0.4609905 0.1805245,0.1279461 0.4337285,0.3049356 0.5626765,0.3933079 0.287991,0.1973716 0.607311,0.427762 0.71008,0.512326 l 0.07688,0.063255 -1.080403,0.5564577 -1.0804023,0.5564561 -0.00845,0.00663 -0.00947,0.00868 -0.010175,0.00462 -0.00105,0.00665 -0.025291,-9.162e-4 c -0.013927,-5.498e-4 -0.088609,-0.04478 -0.1659758,-0.098305 z"
       id="path29" /><path
       style="fill:#5e6265;fill-opacity:1;stroke-width:0.118147"
       d="M 40.746983,7.5641821 V 4.5319888 h 0.545258 0.545258 l 0.117963,0.069599 c 0.06488,0.03828 0.156764,0.1121312 0.204188,0.1641134 l 0.08622,0.094515 0.01468,0.022527 0.0098,0.0258 0.614968,0.7348382 0.614969,0.7348384 c 0.01865,0.031434 0.01787,0.03011 0.01886,0.031786 l 0.102246,0.1054915 0.102245,0.1054914 0.01093,0.018711 0.0088,0.017116 0.17874,0.2114195 c 0.0983,0.1162803 0.194297,0.2142164 0.213313,0.2176357 l 0.03458,0.00621 0.183841,-0.2188921 C 44.6428,6.5289716 45.862928,5.0752296 46.102776,4.7892295 l 0.216819,-0.2585396 0.61316,0.00846 0.613158,0.00846 0.0078,3.0243799 0.008,3.0243782 H 46.858419 46.15492 V 8.8275812 7.0588018 l -0.02955,0.010428 c -0.01626,0.00575 -0.230774,0.2441585 -0.47671,0.5298377 -0.245938,0.2856813 -0.573763,0.6655603 -0.728496,0.8441767 -0.154734,0.1786145 -0.385042,0.4480002 -0.511791,0.5986329 -0.126747,0.1506312 -0.241718,0.2808378 -0.255486,0.2893457 l -0.02503,0.015476 -0.436177,-0.508328 C 42.670393,7.6481589 42.174123,7.0789982 42.14911,7.0692338 l -0.0267,-0.010428 v 1.7687795 1.7687787 h -0.687714 -0.687712 z"
       id="path28" /><path
       id="path27"
       style="fill:#5e6265;fill-opacity:1;stroke-width:0.118147"
       d="m 34.635449,4.547846 -0.164024,0.056918 -0.164024,0.057434 -0.186789,0.1376351 -0.186793,0.1371173 -0.108141,0.1650584 -0.108143,0.1645427 -0.04968,0.175407 -0.04968,0.1748893 0.0084,2.0288242 0.0089,2.0283066 0.08331,0.1774778 0.08331,0.1774766 0.133496,0.145397 c 0.169906,0.184327 0.274992,0.258399 0.493622,0.348745 l 0.175409,0.07244 2.219236,-0.0073 2.219754,-0.0078 0.21318,-0.100896 0.212661,-0.100899 0.165578,-0.169198 0.165058,-0.169198 0.09004,-0.2142133 0.09003,-0.2142143 5e-4,-2.0474524 5e-4,-2.04797 L 39.911753,5.3445814 39.8419,5.1727965 39.745146,5.0553407 39.647867,4.937885 39.63494,4.9171881 39.61993,4.8913177 39.487986,4.7924882 C 39.415234,4.7380944 39.278684,4.6603525 39.184123,4.6202906 l -0.172205,-0.072441 h -2.188193 z m 0.575377,1.1719685 h 1.607122 1.607642 l 0.08227,0.064678 0.08227,0.065195 v 1.7111248 1.7116443 l -0.07244,0.0683 -0.07244,0.067782 h -1.639717 -1.640238 l -0.06934,-0.048638 -0.06934,-0.048638 V 7.563401 5.8150201 l 0.0921,-0.047603 z" /><path
       style="fill:#5e6265;fill-opacity:1;stroke-width:0.118147"
       d="M 27.555379,7.5641821 V 4.5319888 h 0.734604 0.734603 v 1.1722394 c 0,0.6447323 0.0073,1.1722394 0.01614,1.1722394 0.49992,-0.4387257 0.980887,-0.9026402 1.468688,-1.3557251 l 1.062832,-0.9869096 0.921703,-9.162e-4 0.921702,-9.162e-4 -0.124578,0.1215292 C 33.105751,4.8343127 30.15311,7.5340713 29.548177,8.0758546 L 29.02458,8.5447969 v 1.0257942 1.0257939 h -0.734603 -0.734603 z"
       id="path25" /><path
       style="fill:#5e6265;fill-opacity:1;stroke-width:0.118147"
       d="M 20.959576,10.04382 V 9.4912642 l 0.202758,-0.1997888 0.202759,-0.1997887 0.01214,-0.015752 0.01303,-0.016544 0.649659,-0.6523525 0.649664,-0.6523523 c 0.02022,-0.02435 0.0111,-0.024183 0.01614,-0.035232 L 23.38864,7.0244406 c 0.924605,-0.9409924 1.228259,-1.257966 1.228259,-1.2821285 V 5.7219393 L 22.953164,5.7204733 21.289388,5.7190074 21.171365,5.6037495 21.053334,5.4884973 V 5.0103175 4.5321359 h 2.639319 2.639318 l 0.07234,0.1015948 c 0.03977,0.055875 0.06887,0.1051102 0.06465,0.1094084 -0.0042,0.00431 -0.0022,0.00431 0.0046,0 0.0068,-0.00429 0.04196,0.018982 0.07815,0.051735 l 0.06579,0.059549 -6.66e-4,0.4406068 -6.66e-4,0.4406048 c -0.560747,0.5721399 -0.906776,0.9251021 -2.225388,2.2624608 -0.735308,0.7457599 -1.336922,1.36822 -1.336922,1.3832426 v 0.027315 h 3.305935 l 0.144524,0.1691006 0.144465,0.1690987 v 0.4248356 0.424835 h -2.844635 -2.844634 z"
       id="path24" /><path
       id="path23"
       style="fill:#5e6265;fill-opacity:1;stroke-width:0.118147"
       d="m 19.035595,4.5297374 -2.12455,0.00881 -2.125065,0.0093 -0.211109,0.099347 -0.211627,0.099863 -0.165577,0.1660939 -0.165575,0.166092 -0.0921,0.1873087 -0.0921,0.1878263 v 2.125583 2.1255828 l 0.08849,0.1800646 0.08849,0.1800653 0.148501,0.152641 0.148501,0.152639 0.138153,0.07089 c 0.07597,0.03904 0.194591,0.08926 0.263369,0.111247 l 0.124699,0.03985 2.205783,-0.0062 2.205269,-0.0062 0.232841,-0.114869 0.232842,-0.115385 0.09934,-0.103485 c 0.05477,-0.05697 0.148388,-0.184708 0.208006,-0.2840681 l 0.108641,-0.1811072 0.03518,-0.201797 0.03519,-0.2023128 -0.0031,-1.8606614 -0.0026,-1.8606614 -0.04656,-0.179029 C 20.099684,5.2496707 20.002792,5.085712 19.820006,4.9038365 L 19.675126,4.759475 19.506964,4.677205 C 19.414404,4.631885 19.270472,4.580198 19.187195,4.5623361 Z m -0.396866,1.1905948 0.08176,0.064678 0.08227,0.064678 V 7.5665053 9.283323 l -0.06261,0.062607 -0.06261,0.062609 h -1.649551 -1.65007 L 15.308578,9.359901 15.239238,9.311263 V 7.5659875 5.8212307 l 0.05174,-0.042945 0.05123,-0.042947 1.648515,-0.00724 z" /><path
       style="fill:#34373b;stroke-width:0.118147"
       d="M 0.17185861,4.5417587 0.42117116,4.3313672 0.67048371,4.1209759 c 0.0100481,-0.00964 0.00758,-0.00809 0.032936,-0.020417 L 1.0550191,3.8043486 C 1.2483987,3.6414309 1.5578114,3.3797979 1.7426039,3.2229398 1.9273965,3.0660815 2.0856495,2.9377413 2.0942755,2.9377413 c 0.00862,0 0.015686,1.629711 0.015686,3.6215776 V 10.180897 L 1.8989592,10.367153 C 1.4093415,10.79935 0.24694639,11.804193 0.21093406,11.82638 l -0.0390749,0.02407 z"
       id="path21" /><path
       style="fill:#5e6265;fill-opacity:1;stroke-width:0.118147"
       d="m 30.689166,12.386552 -0.132853,-0.01198 V 12.25133 12.128087 h 0.140667 0.14067 v 0.14067 c 0,0.07736 -0.0035,0.138211 -0.0078,0.135206 -0.0043,-0.003 -0.0676,-0.01085 -0.140668,-0.01743 z"
       id="path20" /><path
       style="fill:#5e6265;fill-opacity:1;stroke-width:0.118147"
       d="m 22.936754,12.386637 -0.07035,-0.0128 v -0.122865 -0.122863 h 0.142469 0.142466 l -0.0096,0.129903 -0.0096,0.1299 -0.06252,0.0058 c -0.03439,0.0031 -0.09418,5e-6 -0.132854,-0.0071 z"
       id="path19" /><path
       style="fill:#5e6265;fill-opacity:1;stroke-width:0.118147"
       d="m 22.505461,12.386863 -0.12651,-0.01166 0.0015,-0.123453 0.0015,-0.123452 0.132853,-10e-5 0.132854,-9.9e-5 v 0.140669 c 0,0.07737 -0.0035,0.138212 -0.0079,0.135207 -0.0043,-0.003 -0.06474,-0.0107 -0.134322,-0.01712 z"
       id="path18" /><path
       style="fill:#5e6265;fill-opacity:1;stroke-width:0.118147"
       d="m 45.6235,13.486188 v -0.923875 l 0.143739,0.0095 0.143737,0.0095 0.293933,0.514259 c 0.161661,0.28284 0.305993,0.526317 0.32073,0.541056 l 0.0268,0.0268 0.309207,-0.548093 0.309211,-0.548094 0.132852,-7.33e-4 0.132856,-7.32e-4 v 0.922163 0.92216 l -0.132856,-2.6e-5 -0.132852,-2.2e-5 0.0013,-0.617355 c 6.67e-4,-0.339546 -0.0045,-0.629358 -0.01164,-0.644025 -0.01279,-0.02623 -0.520866,0.849822 -0.554825,0.956645 l -0.01739,0.0547 -0.0526,-7.33e-4 -0.0526,-7.33e-4 -0.280127,-0.499562 C 46.048906,13.384322 45.911189,13.15952 45.896938,13.15952 h -0.02583 l 0.009,0.625227 0.009,0.625226 -0.132854,-3.1e-5 -0.132854,-3.4e-5 z"
       id="path17" /><path
       style="fill:#5e6265;fill-opacity:1;stroke-width:0.118147"
       d="m 41.703995,14.344781 c -0.04565,-0.03591 -0.107325,-0.109753 -0.13707,-0.16411 l -0.05408,-0.09884 -0.004,-0.758051 -0.004,-0.758048 h 0.152474 0.152475 v 0.699882 0.699879 l 0.05976,0.07379 0.05976,0.07381 h 0.33375 0.333752 l 0.05976,-0.07381 0.05976,-0.07379 v -0.699878 -0.699881 h 0.152859 0.152863 l -0.0044,0.75805 -0.0044,0.758048 -0.05622,0.102975 -0.05622,0.102977 -0.100079,0.06102 -0.100079,0.06102 -0.456865,1.18e-4 -0.456866,1.14e-4 z"
       id="path16" /><path
       style="fill:#5e6265;fill-opacity:1;stroke-width:0.118147"
       d="m 38.183685,14.002562 v -0.4075 L 37.839827,13.09576 c -0.404766,-0.587743 -0.387251,-0.530021 -0.160816,-0.530021 h 0.183042 l 0.23741,0.361362 0.237412,0.361363 0.08752,-0.120954 c 0.04814,-0.06653 0.157852,-0.228262 0.243817,-0.35942 l 0.156298,-0.238465 0.181589,-0.002 0.181589,-0.002 -0.02272,0.03908 c -0.01249,0.02148 -0.06462,0.09842 -0.115842,0.170937 l -0.09313,0.131863 -0.03149,-0.01947 -0.0315,-0.01947 0.02191,0.03546 0.02191,0.03545 -0.220271,0.318332 -0.220265,0.318333 v 0.41691 0.416909 h -0.15631 -0.156298 z"
       id="path15" /><path
       style="fill:#5e6265;fill-opacity:1;stroke-width:0.118147"
       d="m 33.494726,13.487901 v -0.922162 h 0.117882 0.117883 l 0.511507,0.617379 c 0.281327,0.33956 0.523683,0.622068 0.538571,0.627798 l 0.02707,0.01043 v -0.627803 -0.627802 h 0.140666 0.140668 v 0.922164 0.922162 H 34.966424 34.843875 L 34.568463,14.074021 C 34.416985,13.889199 34.176728,13.600235 34.034555,13.431884 L 33.776063,13.12579 v 0.642138 0.642135 h -0.140666 -0.140671 z"
       id="path14" /><path
       style="fill:#5e6265;fill-opacity:1;stroke-width:0.118147"
       d="m 30.549408,13.487883 -0.0088,-0.92218 0.148485,1.8e-5 0.148483,1.8e-5 v 0.922162 0.92216 h -0.139758 -0.139759 z"
       id="path13" /><path
       style="fill:#5e6265;fill-opacity:1;stroke-width:0.118147"
       d="m 26.117431,13.487901 v -0.922162 l 0.132854,7.33e-4 0.132853,7.33e-4 0.309882,0.546288 c 0.352549,0.621506 0.321279,0.592391 0.426978,0.39754 0.04422,-0.08152 0.183699,-0.327572 0.309955,-0.546782 l 0.229557,-0.398562 h 0.135491 0.135495 v 0.922164 0.922161 h -0.140667 -0.140671 v -0.640835 -0.640825 h -0.03125 c -0.01719,0 -0.03126,0.01269 -0.03126,0.02821 0,0.01551 -0.122156,0.24762 -0.271459,0.515786 l -0.271455,0.487572 h -0.03823 -0.03823 l -0.267387,-0.47671 C 26.552825,13.421021 26.418706,13.1854 26.401848,13.159611 l -0.03065,-0.04689 -0.0019,0.648638 -0.0019,0.64864 h -0.12492 -0.125038 z"
       id="path12" /><path
       style="fill:#5e6265;fill-opacity:1;stroke-width:0.118147"
       d="m 22.202328,14.355216 -0.08578,-0.05319 -0.05454,-0.110091 -0.05454,-0.11009 -0.011,-0.758051 -0.01099,-0.758046 h 0.157532 0.157533 l 0.0094,0.733101 0.0094,0.733099 0.04057,0.04058 0.04057,0.04058 0.325352,0.01061 0.325351,0.01061 0.07954,-0.07954 0.07954,-0.07954 v -0.704757 -0.704765 h 0.140671 0.140668 v 0.776871 0.776868 l -0.07127,0.105763 c -0.0392,0.05817 -0.106019,0.123343 -0.148485,0.144831 l -0.0772,0.03907 -0.453266,-3.67e-4 -0.453265,-3.66e-4 z"
       id="path11" /><path
       id="path10"
       style="fill:#5e6265;fill-opacity:1;stroke-width:0.118147"
       d="m 14.749244,12.565868 -0.367373,0.867205 c -0.202112,0.477102 -0.374918,0.891963 -0.383929,0.922053 l -0.01656,0.05485 h 0.152122 0.152641 l 0.07295,-0.202832 0.07295,-0.203347 h 0.458439 0.458439 l 0.07295,0.203347 0.07295,0.202832 h 0.166094 0.165575 L 15.697137,14.10159 c -0.07132,-0.169805 -0.242249,-0.584617 -0.379791,-0.921534 l -0.250434,-0.612633 -0.158849,-9.16e-4 z m 0.142809,0.375134 c 0.01743,0 0.213699,0.450693 0.302693,0.695419 l 0.01966,0.05485 h -0.315629 c -0.162908,0 -0.298339,-0.0062 -0.314594,-0.01396 l -5.17e-4,-5.49e-4 h -5.16e-4 v -5.5e-4 h -5.17e-4 v -5.5e-4 c 0,-0.04387 0.290937,-0.734744 0.309421,-0.734744 z" /><path
       style="fill:#5e6265;fill-opacity:1;stroke-width:0.118147"
       d="m 18.951139,14.417244 -0.648641,-0.0085 v -0.921527 -0.921528 h 0.155753 0.155753 l 0.0084,0.773679 0.0084,0.773677 0.484371,0.01026 c 0.560164,0.01186 0.506568,-0.0062 0.494346,0.166118 l -0.0096,0.136215 z"
       id="path8" /><path
       style="fill:#34373b;stroke-width:0.118147"
       d="M 0.53886453,14.398252 C 0.85268662,14.04007 1.2719712,13.560208 1.8959753,12.845066 2.3620806,12.310886 3.0502502,11.530903 3.5627944,10.955863 3.838632,10.64639 4.2699017,10.161084 4.5211721,9.8774016 4.7724411,9.5937194 5.0149544,9.3275138 5.0600901,9.2858323 l 0.082065,-0.075784 v 2.0202697 2.020268 L 4.681073,13.395649 C 4.4274789,13.475432 3.9597549,13.6226 3.641688,13.722682 3.3236198,13.82276 2.7820455,13.991456 2.4381883,14.097548 2.0943308,14.203644 1.6863916,14.330376 1.5316559,14.379174 1.376921,14.427963 1.0533825,14.526456 0.812683,14.598029 0.57198198,14.669603 0.33622917,14.740303 0.28878611,14.755145 l -0.0862604,0.02698 z"
       id="path7" /><path
       style="fill:#34373b;stroke-width:0.118147"
       d="M 10.973597,15.027442 C 10.837572,14.851213 10.349155,14.212435 9.8882196,13.607927 L 9.0501588,12.508827 9.0493259,9.0785912 9.048493,5.6483569 9.1037416,5.6103436 c 0.030386,-0.020907 0.231085,-0.13365 0.4459955,-0.2505401 0.2149106,-0.1168882 0.4399807,-0.2402837 0.5001569,-0.2742126 0.06017,-0.033927 0.320411,-0.173876 0.578303,-0.3109988 0.257894,-0.137121 0.500547,-0.2692272 0.539231,-0.2935685 l 0.07035,-0.044255 v 5.4555432 c 0,3.0005472 -0.0038,5.4555412 -0.0085,5.4555412 -0.0046,0 -0.119738,-0.144184 -0.255758,-0.320411 z"
       id="path6" /><path
       style="fill:#34373b;stroke-width:0.118147"
       d="M 10.925204,15.532023 C 8.5749905,14.590404 6.0089676,13.53852 6.0560231,13.536012 c 0.012631,-7.33e-4 0.322103,-0.09369 0.6877136,-0.206712 1.2216448,-0.377639 2.1911271,-0.669956 2.1955991,-0.662015 0.00244,0.0043 0.1271603,0.166733 0.277168,0.36091 l 0.272741,0.353049 c 0.033998,0.04256 0.034523,0.04017 0.038011,0.04424 l 0.7772962,1.015942 0.777297,1.015943 c 0.08704,0.117411 0.08687,0.117275 0.134375,0.171919 l -0.02829,-0.0017 c -0.01556,-9.16e-4 -0.133791,-0.04388 -0.262738,-0.09556 z"
       id="path3" /></g></svg>
